<?xml version="1.0" standalone="no"?><!DOCTYPE svg PUBLIC "-//W3C//DTD SVG 1.1//EN" "http://www.w3.org/Graphics/SVG/1.1/DTD/svg11.dtd"><svg height="1024" node-id="1" sillyvg="true" template-height="1024" template-width="1762" version="1.1" viewBox="0 0 1762 1024" width="1762" xmlns="http://www.w3.org/2000/svg" xmlns:xlink="http://www.w3.org/1999/xlink"><defs node-id="40"></defs><path d="M 12.12 837.60 L 261.94 269.94 L 422.03 7.96 L 1547.92 7.96 L 1639.92 211.66 L 1353.36 858.94 L 12.12 837.60 Z" fill="#ffffff" fill-rule="nonzero" node-id="42" stroke="none" target-height="850.9742" target-width="1627.7981" target-x="12.1219" target-y="7.96484"></path><path d="M 1542.78 15.93 L 1631.19 211.69 L 1348.21 850.89 L 24.24 829.82 L 269.01 273.64 L 426.50 15.93 L 1542.78 15.93 Z M 1553.07 0.00 L 417.56 0.00 L 254.86 266.24 L 0.00 845.37 L 1358.51 866.99 L 1648.64 211.63 L 1553.07 0.00 Z" fill="#000000" fill-rule="nonzero" node-id="44" stroke="none" target-height="866.987" target-width="1648.64" target-x="0" target-y="0"></path><path d="M 1441.56 641.71 L 1036.52 641.71 L 1036.52 847.65 L 1349.40 851.06 L 1441.56 641.71 Z" fill="#315bf4" fill-rule="nonzero" node-id="46" stroke="none" target-height="209.35101" target-width="405.04004" target-x="1036.52" target-y="641.709"></path><path d="M 1117.30 383.43 L 1237.90 276.48" fill="none" node-id="48" stroke="#d2e9fe" stroke-linecap="butt" stroke-width="12" target-height="106.951996" target-width="120.599976" target-x="1117.3" target-y="276.48"></path><path d="M 1256.11 279.89 L 1349.40 364.09" fill="none" node-id="50" stroke="#d2e9fe" stroke-linecap="butt" stroke-width="12" target-height="84.19501" target-width="93.29004" target-x="1256.11" target-y="279.895"></path><path d="M 1366.47 354.99 L 1480.25 248.04" fill="none" node-id="52" stroke="#d2e9fe" stroke-linecap="butt" stroke-width="12" target-height="106.951004" target-width="113.78003" target-x="1366.47" target-y="248.037"></path><path d="M 1103.64 413.01 C 1116.21 413.01 1126.40 402.83 1126.40 390.26 C 1126.40 377.69 1116.21 367.50 1103.64 367.50 C 1091.08 367.50 1080.89 377.69 1080.89 390.26 C 1080.89 402.83 1091.08 413.01 1103.64 413.01 Z" fill="#315bf4" fill-rule="nonzero" node-id="54" stroke="none" target-height="45.511017" target-width="45.51001" target-x="1080.89" target-y="367.504"></path><path d="M 1241.32 301.51 C 1260.80 301.51 1276.59 285.72 1276.59 266.24 C 1276.59 246.76 1260.80 230.97 1241.32 230.97 C 1221.84 230.97 1206.04 246.76 1206.04 266.24 C 1206.04 285.72 1221.84 301.51 1241.32 301.51 Z" fill="#315bf4" fill-rule="nonzero" node-id="56" stroke="none" target-height="70.54201" target-width="70.54993" target-x="1206.04" target-y="230.971"></path><path d="M 1357.37 400.50 C 1371.82 400.50 1383.54 388.78 1383.54 374.33 C 1383.54 359.88 1371.82 348.16 1357.37 348.16 C 1342.92 348.16 1331.20 359.88 1331.20 374.33 C 1331.20 388.78 1342.92 400.50 1357.37 400.50 Z" fill="#315bf4" fill-rule="nonzero" node-id="58" stroke="none" target-height="52.338013" target-width="52.340088" target-x="1331.2" target-y="348.162"></path><path d="M 1489.35 259.42 C 1506.95 259.42 1521.21 245.15 1521.21 227.56 C 1521.21 209.96 1506.95 195.70 1489.35 195.70 C 1471.76 195.70 1457.49 209.96 1457.49 227.56 C 1457.49 245.15 1471.76 259.42 1489.35 259.42 Z" fill="#315bf4" fill-rule="nonzero" node-id="60" stroke="none" target-height="63.716003" target-width="63.71997" target-x="1457.49" target-y="195.699"></path><path d="M 31.86 1016.04 C 18.68 1016.04 7.96 1005.32 7.96 992.14 L 7.96 243.49 C 7.96 230.31 18.68 219.59 31.86 219.59 L 1125.26 219.59 C 1138.44 219.59 1149.16 230.31 1149.16 243.49 L 1149.16 992.14 C 1149.16 1005.32 1138.44 1016.04 1125.26 1016.04 L 31.86 1016.04 Z" fill="#ffffff" fill-rule="nonzero" node-id="62" stroke="none" target-height="796.448" target-width="1141.1956" target-x="7.96445" target-y="219.592"></path><path d="M 1125.26 227.56 C 1134.05 227.56 1141.19 234.70 1141.19 243.49 L 1141.19 992.14 C 1141.19 1000.93 1134.05 1008.07 1125.26 1008.07 L 31.86 1008.07 C 23.07 1008.07 15.93 1000.93 15.93 992.14 L 15.93 243.49 C 15.93 234.70 23.07 227.56 31.86 227.56 L 1125.26 227.56 Z M 1125.26 211.63 L 31.86 211.63 C 14.34 211.63 0.00 225.96 0.00 243.49 L 0.00 992.14 C 0.00 1009.66 14.34 1024.00 31.86 1024.00 L 1125.26 1024.00 C 1142.78 1024.00 1157.12 1009.66 1157.12 992.14 L 1157.12 243.49 C 1157.12 225.96 1142.78 211.63 1125.26 211.63 Z" fill="#000000" fill-rule="nonzero" node-id="64" stroke="none" target-height="812.373" target-width="1157.12" target-x="0" target-y="211.627"></path><path d="M 457.13 96.46 C 470.82 96.46 481.91 85.37 481.91 71.68 C 481.91 58.00 470.82 46.90 457.13 46.90 C 443.45 46.90 432.36 58.00 432.36 71.68 C 432.36 85.37 443.45 96.46 457.13 96.46 Z" fill="#ff3f08" fill-rule="nonzero" node-id="66" stroke="none" target-height="49.556698" target-width="49.557007" target-x="432.356" target-y="46.9023"></path><path d="M 542.09 96.46 C 555.77 96.46 566.87 85.37 566.87 71.68 C 566.87 58.00 555.77 46.90 542.09 46.90 C 528.40 46.90 517.31 58.00 517.31 71.68 C 517.31 85.37 528.40 96.46 542.09 96.46 Z" fill="#315bf4" fill-rule="nonzero" node-id="68" stroke="none" target-height="49.556698" target-width="49.557007" target-x="517.309" target-y="46.9023"></path><path d="M 622.62 96.46 C 636.30 96.46 647.40 85.37 647.40 71.68 C 647.40 58.00 636.30 46.90 622.62 46.90 C 608.93 46.90 597.84 58.00 597.84 71.68 C 597.84 85.37 608.93 96.46 622.62 96.46 Z" fill="#315bf4" fill-rule="nonzero" node-id="70" stroke="none" target-height="49.556698" target-width="49.557007" target-x="597.839" target-y="46.9023"></path><path d="M 232.11 374.33 L 548.41 374.33 C 555.92 374.33 562.06 380.47 562.06 387.98 L 562.06 914.77 C 562.06 922.28 555.92 928.43 548.41 928.43 L 232.11 928.43 C 224.60 928.43 218.45 922.28 218.45 914.77 L 218.45 387.98 C 218.45 380.47 224.60 374.33 232.11 374.33 Z" fill="#d2e9fe" fill-rule="nonzero" node-id="72" stroke="none" target-height="554.098" target-width="343.609" target-x="218.453" target-y="374.33"></path><path d="M 457.39 869.26 L 147.91 869.26 C 140.40 869.26 134.26 863.12 134.26 855.61 L 134.26 318.58 C 134.26 311.07 140.40 304.93 147.91 304.93 L 457.39 304.93 C 464.90 304.93 471.04 311.07 471.04 318.58 L 471.04 855.61 C 471.04 863.12 464.90 869.26 457.39 869.26 Z" fill="#315bf4" fill-rule="nonzero" node-id="74" stroke="none" target-height="564.338" target-width="336.782" target-x="134.258" target-y="304.926"></path><path d="M 301.51 438.05 C 320.99 438.05 336.78 422.25 336.78 402.77 C 336.78 383.30 320.99 367.50 301.51 367.50 C 282.03 367.50 266.24 383.30 266.24 402.77 C 266.24 422.25 282.03 438.05 301.51 438.05 Z" fill="#ffffff" fill-rule="nonzero" node-id="76" stroke="none" target-height="70.54199" target-width="70.54202" target-x="266.24" target-y="367.504"></path><path d="M 259.41 529.07 C 259.41 529.07 246.90 450.56 301.51 450.56 C 356.12 450.56 344.75 529.07 344.75 529.07 L 259.41 529.07 Z" fill="#ffffff" fill-rule="nonzero" node-id="78" stroke="none" target-height="78.50601" target-width="109.226" target-x="246.898" target-y="450.561"></path><path d="M 207.64 587.09 L 397.65 587.09 C 402.97 587.09 407.32 591.45 407.32 596.76 C 407.32 602.08 402.97 606.44 397.65 606.44 L 207.64 606.44 C 202.32 606.44 197.97 602.08 197.97 596.76 C 197.97 591.45 202.32 587.09 207.64 587.09 Z" fill="#ffffff" fill-rule="nonzero" node-id="80" stroke="none" target-height="19.34198" target-width="209.351" target-x="197.973" target-y="587.094"></path><path d="M 237.23 643.98 L 368.07 643.98 C 373.39 643.98 377.74 648.34 377.74 653.65 C 377.74 658.98 373.39 663.33 368.07 663.33 L 237.23 663.33 C 231.91 663.33 227.56 658.98 227.56 653.65 C 227.56 648.34 231.91 643.98 237.23 643.98 Z" fill="#ffffff" fill-rule="nonzero" node-id="82" stroke="none" target-height="19.343018" target-width="150.186" target-x="227.556" target-y="643.984"></path><path d="M 264.53 700.87 L 344.18 700.87 C 349.50 700.87 353.85 705.23 353.85 710.54 C 353.85 715.86 349.50 720.22 344.18 720.22 L 264.53 720.22 C 259.21 720.22 254.86 715.86 254.86 710.54 C 254.86 705.23 259.21 700.87 264.53 700.87 Z" fill="#ffffff" fill-rule="nonzero" node-id="84" stroke="none" target-height="19.342041" target-width="98.987" target-x="254.862" target-y="700.873"></path><path d="M 221.30 766.86 L 407.89 766.86 C 413.21 766.86 417.56 771.22 417.56 776.53 C 417.56 781.85 413.21 786.21 407.89 786.21 L 221.30 786.21 C 215.98 786.21 211.63 781.85 211.63 776.53 C 211.63 771.22 215.98 766.86 221.30 766.86 Z" fill="#ffffff" fill-rule="nonzero" node-id="86" stroke="none" target-height="19.343018" target-width="205.937" target-x="211.627" target-y="766.863"></path><path d="M 884.05 590.51 C 950.03 590.51 1003.52 537.02 1003.52 471.04 C 1003.52 405.06 950.03 351.57 884.05 351.57 C 818.07 351.57 764.59 405.06 764.59 471.04 C 764.59 537.02 818.07 590.51 884.05 590.51 Z" fill="#ff3f08" fill-rule="nonzero" node-id="88" stroke="none" target-height="238.93399" target-width="238.93304" target-x="764.587" target-y="351.572"></path><path d="M 845.37 530.20 L 845.37 397.08 L 950.04 467.63 L 845.37 530.20 Z" fill="#ffffff" fill-rule="nonzero" node-id="90" stroke="none" target-height="133.11996" target-width="104.67499" target-x="845.369" target-y="397.084"></path><path d="M 715.66 688.36 L 1045.62 688.36 C 1053.13 688.36 1059.27 694.50 1059.27 702.01 L 1059.27 769.14 C 1059.27 776.65 1053.13 782.79 1045.62 782.79 L 715.66 782.79 C 708.15 782.79 702.01 776.65 702.01 769.14 L 702.01 702.01 C 702.01 694.50 708.15 688.36 715.66 688.36 Z" fill="#315bf4" fill-rule="nonzero" node-id="92" stroke="none" target-height="94.436035" target-width="357.26105" target-x="702.009" target-y="688.355"></path><path d="M 1048.46 866.99 L 712.82 866.99 C 706.87 866.99 702.01 862.12 702.01 856.18 C 702.01 850.23 706.87 845.37 712.82 845.37 L 1048.46 845.37 C 1054.41 845.37 1059.27 850.23 1059.27 856.18 C 1059.27 862.12 1054.41 866.99 1048.46 866.99 Z" fill="#315bf4" fill-rule="nonzero" node-id="94" stroke="none" target-height="21.617981" target-width="357.26105" target-x="702.009" target-y="845.367"></path><path d="M 811.24 943.22 C 819.40 943.22 826.03 936.60 826.03 928.43 C 826.03 920.26 819.40 913.63 811.24 913.63 C 803.07 913.63 796.44 920.26 796.44 928.43 C 796.44 936.60 803.07 943.22 811.24 943.22 Z" fill="#ff3f08" fill-rule="nonzero" node-id="96" stroke="none" target-height="29.58197" target-width="29.583008" target-x="796.444" target-y="913.635"></path><path d="M 889.74 943.22 C 897.91 943.22 904.53 936.60 904.53 928.43 C 904.53 920.26 897.91 913.63 889.74 913.63 C 881.57 913.63 874.95 920.26 874.95 928.43 C 874.95 936.60 881.57 943.22 889.74 943.22 Z" fill="#315bf4" fill-rule="nonzero" node-id="98" stroke="none" target-height="29.58197" target-width="29.582031" target-x="874.951" target-y="913.635"></path><path d="M 961.42 943.22 C 969.59 943.22 976.21 936.60 976.21 928.43 C 976.21 920.26 969.59 913.63 961.42 913.63 C 953.25 913.63 946.63 920.26 946.63 928.43 C 946.63 936.60 953.25 943.22 961.42 943.22 Z" fill="#ff3f08" fill-rule="nonzero" node-id="100" stroke="none" target-height="29.58197" target-width="29.582031" target-x="946.631" target-y="913.635"></path><path d="M 1632.71 431.22 C 1627.95 431.22 1623.28 431.58 1618.72 432.27 C 1618.71 432.09 1618.71 431.92 1618.70 431.74 C 1616.76 389.34 1571.43 356.96 1517.45 359.43 C 1463.46 361.89 1421.27 398.27 1423.21 440.67 C 1423.24 441.49 1423.33 442.29 1423.40 443.10 C 1409.92 435.54 1394.39 431.22 1377.85 431.22 C 1326.32 431.22 1284.55 472.99 1284.55 524.51 C 1284.55 574.52 1323.89 615.32 1373.30 617.70 L 1373.30 617.81 L 1632.71 617.81 C 1684.24 617.81 1726.01 576.04 1726.01 524.52 C 1726.01 472.99 1684.24 431.22 1632.71 431.22 Z" fill="#d2e9fe" fill-rule="nonzero" node-id="102" stroke="none" target-height="260.851" target-width="441.45996" target-x="1284.55" target-y="356.963"></path><path d="M 1530.31 436.91 L 1475.70 590.51" fill="none" node-id="104" stroke="#315bf4" stroke-linecap="round" stroke-width="14" target-height="153.6" target-width="54.610107" target-x="1475.7" target-y="436.908"></path><path d="M 1463.18 477.87 L 1533.72 427.81" fill="none" node-id="106" stroke="#315bf4" stroke-linecap="round" stroke-width="14" target-height="50.06198" target-width="70.53992" target-x="1463.18" target-y="427.807"></path><path d="M 1554.20 505.18 L 1533.72 427.81" fill="none" node-id="108" stroke="#315bf4" stroke-linecap="round" stroke-width="14" target-height="77.36899" target-width="20.47998" target-x="1533.72" target-y="427.807"></path><path d="M 1681.64 164.98 L 1601.99 0.00 L 1761.28 0.00 L 1681.64 164.98 Z" fill="#315bf4" fill-rule="nonzero" node-id="110" stroke="none" target-height="164.978" target-width="159.29004" target-x="1601.99" target-y="0"></path><path d="M 1601.99 143.36 L 343.61 143.36 L 353.85 127.43 L 1601.99 127.43 L 1601.99 143.36 Z" fill="#ffffff" fill-rule="nonzero" node-id="112" stroke="none" target-height="15.928993" target-width="1258.381" target-x="343.609" target-y="127.43"></path><path d="M 1601.99 127.43 L 353.85 127.43 L 343.61 143.36 L 1601.99 143.36 L 1601.99 127.43 Z" fill="#000000" fill-rule="nonzero" node-id="114" stroke="none" target-height="15.928993" target-width="1258.381" target-x="343.609" target-y="127.43"></path></svg>